<svg id="Livello_1" data-name="Livello 1" xmlns="http://www.w3.org/2000/svg" viewBox="0 0 250 40"><defs><style>.cls-1{fill:#1d1d1b;}.cls-2{fill:#c8092b;}</style></defs><title>iosystems-logo5</title><path class="cls-1" d="M1.84,16.94l.22.26,6.71,8.45L9.1,26A1.64,1.64,0,0,0,11.46,26l.43-.41L36.54,1.12a3,3,0,0,0-.76-.1H4.71a3.1,3.1,0,0,0-3.1,3.1V16.66a.83.83,0,0,1,.23.28"/><path class="cls-1" d="M16.38,38.26H35.71a3.13,3.13,0,0,0,3.13-3.12h0v-31L16.45,38.15l-.07.11"/><path class="cls-1" d="M1.61,20.23V35.12a3.14,3.14,0,0,0,3.14,3.14h5.93a3.51,3.51,0,0,1-.23-.45Z"/><path class="cls-2" d="M51.25,28V1h2.93a.48.48,0,0,1,.47.47v27H51.73a.48.48,0,0,1-.47-.47"/><path class="cls-2" d="M65.7,28.48a6.15,6.15,0,0,1-6.15-6.16V7.15A6.15,6.15,0,0,1,65.7,1h8.19A6.17,6.17,0,0,1,80,7.15V22.33a6.17,6.17,0,0,1-6.15,6.16ZM62.95,6.86V22.62a2.75,2.75,0,0,0,2.75,2.75h8.19a2.75,2.75,0,0,0,2.75-2.75V6.86a2.75,2.75,0,0,0-2.75-2.75H65.7a2.75,2.75,0,0,0-2.75,2.75"/><path class="cls-1" d="M100.29,25.36A2.72,2.72,0,0,0,103,22.58V19.25a1,1,0,0,0-.66-.88L88.29,13.68a3.13,3.13,0,0,1-2-2.78V6.55C86.27,3.11,89.05,1,92.49,1h13V3.7a.46.46,0,0,1-.48.47H92.49a2.61,2.61,0,0,0-2.82,2.52v3.55a1,1,0,0,0,.66.91l14.05,4.65a3.08,3.08,0,0,1,1.9,2.82v3.92a5.84,5.84,0,0,1-6,6h-14V25.83a.46.46,0,0,1,.47-.48Z"/><path class="cls-1" d="M120.37,17.34V28a.48.48,0,0,1-.48.48h-3V17.29a2.94,2.94,0,0,1-2.53-2L108.78,1H112a.84.84,0,0,1,.66.43l4.58,12a1.13,1.13,0,0,0,.95.66h.91a1.13,1.13,0,0,0,1-.66l4.57-12a.84.84,0,0,1,.66-.43h3.22l-5.6,14.24a2.91,2.91,0,0,1-2.49,2.08Z"/><path class="cls-1" d="M144.81,25.36a2.72,2.72,0,0,0,2.71-2.78V19.25a1,1,0,0,0-.66-.88l-14.05-4.69a3.13,3.13,0,0,1-2-2.78V6.55C130.8,3.11,133.58,1,137,1h13V3.7a.46.46,0,0,1-.47.47H137a2.6,2.6,0,0,0-2.82,2.52v3.55a1,1,0,0,0,.66.91l14.05,4.65a3.08,3.08,0,0,1,1.9,2.82v3.92a5.84,5.84,0,0,1-6,6h-14V25.83a.46.46,0,0,1,.47-.48Z"/><path class="cls-1" d="M173.14,1V3.69a.49.49,0,0,1-.48.48h-7.83V28a.46.46,0,0,1-.48.47h-3V4.17h-8.19V1.5a.48.48,0,0,1,.47-.48Z"/><path class="cls-1" d="M179.39,6.95v7a2.33,2.33,0,0,1,1.79-.73h12v2.67a.48.48,0,0,1-.48.48H179.39v6.26a2.78,2.78,0,0,0,2.78,2.78H194a.48.48,0,0,1,.48.48V28.5H182.17A6.21,6.21,0,0,1,176,22.28v-15A6.22,6.22,0,0,1,182.17,1h12.33V3.69a.49.49,0,0,1-.48.48H182.17a2.78,2.78,0,0,0-2.78,2.78"/><path class="cls-1" d="M201.9,1.64,211,18.33l9.14-16.68a1.25,1.25,0,0,1,1-.59h2.56a.46.46,0,0,1,.48.48V28.47h-3a.48.48,0,0,1-.48-.48V6.62l-7.65,14.53a.88.88,0,0,1-.73.44h-2.67a.88.88,0,0,1-.73-.44L201.31,6.62V28a.48.48,0,0,1-.48.48h-3V1.54a.46.46,0,0,1,.48-.48h2.56a1.25,1.25,0,0,1,1,.59"/><path class="cls-1" d="M242,25.36a2.72,2.72,0,0,0,2.71-2.78V19.25a1,1,0,0,0-.66-.88L230,13.68a3.13,3.13,0,0,1-2-2.78V6.55C228,3.11,230.76,1,234.2,1h13V3.7a.46.46,0,0,1-.47.47H234.2a2.6,2.6,0,0,0-2.82,2.52v3.55a1,1,0,0,0,.66.91l14.05,4.65a3.08,3.08,0,0,1,1.9,2.82v3.92a5.84,5.84,0,0,1-6,6H228V25.83a.46.46,0,0,1,.48-.48Z"/><path class="cls-1" d="M57.54,38.26h-.72a.16.16,0,0,1-.16-.11l-.59-1.69H52.72l-.59,1.69a.17.17,0,0,1-.16.11h-.72l2.14-6.1a.74.74,0,0,1,.69-.49h1a.12.12,0,0,1,.11.06ZM55.81,35.7l-1.14-3.28h-.43a.17.17,0,0,0-.16.11L53,35.7Z"/><path class="cls-1" d="M66.06,36.81V33.12a1.49,1.49,0,0,1,1.49-1.49h3v.64a.12.12,0,0,1-.12.12H67.56a.67.67,0,0,0-.67.67v3.82a.67.67,0,0,0,.67.67h1.82a.74.74,0,0,0,.75-.67V35.29h-1.6a.12.12,0,0,1-.11-.12v-.64h2.34a.12.12,0,0,1,.11.11v2.25a1.36,1.36,0,0,1-1.49,1.41H67.56a1.49,1.49,0,0,1-1.49-1.49"/><path class="cls-1" d="M80.56,33.09v1.67a.56.56,0,0,1,.43-.18h2.89v.64a.12.12,0,0,1-.11.12H80.56v1.5a.67.67,0,0,0,.67.67h2.84a.12.12,0,0,1,.12.12v.64h-3a1.49,1.49,0,0,1-1.5-1.49V33.16a1.49,1.49,0,0,1,1.5-1.49h3v.64a.12.12,0,0,1-.12.11H81.23a.67.67,0,0,0-.67.67"/><path class="cls-1" d="M97.28,37.07c-.09-.69-.09-1.24-.13-1.86V31.78a.12.12,0,0,1,.12-.11H98v6.6h-.76a.21.21,0,0,1-.17-.11l-3-5.6a.3.3,0,0,0-.24-.14h-.15v5.73a.12.12,0,0,1-.11.12h-.71V31.78a.12.12,0,0,1,.12-.11h1a.93.93,0,0,1,.75.45l1.79,3.38Z"/><path class="cls-1" d="M106.94,32.42v-.64a.12.12,0,0,1,.12-.12h4.79a.12.12,0,0,1,.11.12v.53a.45.45,0,0,1-.12.32l-4.16,4.89H112v.64a.12.12,0,0,1-.11.12h-5.06a.12.12,0,0,1-.11-.12v-.44a.52.52,0,0,1,.11-.32l4.24-5Z"/><path class="cls-1" d="M120.87,38.15V31.67h.71a.12.12,0,0,1,.11.12v6.48H121a.12.12,0,0,1-.12-.12"/><path class="cls-1" d="M136.59,38.26h-.72a.16.16,0,0,1-.16-.11l-.59-1.69h-3.36l-.59,1.69a.17.17,0,0,1-.16.11h-.72l2.14-6.1a.74.74,0,0,1,.69-.49h1a.12.12,0,0,1,.1.06Zm-1.73-2.56-1.14-3.28h-.43a.16.16,0,0,0-.16.11L132,35.7Z"/><path class="cls-1" d="M156.28,37.75V32.18a.51.51,0,0,1,.51-.51h2.82a1.49,1.49,0,0,1,1.49,1.49v3.61a1.5,1.5,0,0,1-1.49,1.5h-2.82a.51.51,0,0,1-.51-.51m3.33-.25a.67.67,0,0,0,.67-.67V33.09a.67.67,0,0,0-.67-.67h-2.34a.16.16,0,0,0-.17.17v4.75a.17.17,0,0,0,.17.17Z"/><path class="cls-1" d="M170.16,38.15V31.67h.71a.12.12,0,0,1,.11.12v6.48h-.71a.12.12,0,0,1-.12-.12"/><path class="cls-1" d="M180,36.81V33.12a1.49,1.49,0,0,1,1.49-1.49h3v.64a.12.12,0,0,1-.12.12H181.5a.67.67,0,0,0-.67.67v3.82a.67.67,0,0,0,.67.67h1.82a.74.74,0,0,0,.75-.67V35.29h-1.6a.12.12,0,0,1-.11-.12v-.64h2.34a.12.12,0,0,1,.12.11v2.25a1.36,1.36,0,0,1-1.5,1.41H181.5A1.49,1.49,0,0,1,180,36.81"/><path class="cls-1" d="M193.86,38.15V31.67h.71a.12.12,0,0,1,.11.12v6.48H194a.12.12,0,0,1-.12-.12"/><path class="cls-1" d="M208.13,31.67v.64a.12.12,0,0,1-.12.12h-1.88v5.73a.11.11,0,0,1-.12.11h-.71V32.42h-2v-.64a.12.12,0,0,1,.12-.12Z"/><path class="cls-1" d="M222,38.26h-.72a.16.16,0,0,1-.16-.11l-.59-1.69h-3.36l-.59,1.69a.17.17,0,0,1-.16.11h-.72l2.14-6.1a.74.74,0,0,1,.69-.49h1a.12.12,0,0,1,.1.06Zm-1.73-2.56-1.14-3.28h-.43a.16.16,0,0,0-.16.11l-1.1,3.16Z"/><path class="cls-1" d="M230.47,36.74v-5a.12.12,0,0,1,.12-.12h.71v5.16a.68.68,0,0,0,.68.68h2.74a.12.12,0,0,1,.11.12v.64H232a1.51,1.51,0,0,1-1.5-1.52"/><path class="cls-1" d="M244.18,33.09v1.67a.57.57,0,0,1,.43-.18h2.89v.64a.12.12,0,0,1-.11.12h-3.21v1.5a.67.67,0,0,0,.67.67h2.84a.12.12,0,0,1,.12.12v.64h-3a1.49,1.49,0,0,1-1.5-1.49V33.16a1.49,1.49,0,0,1,1.5-1.49h3v.64a.12.12,0,0,1-.12.11h-2.84a.67.67,0,0,0-.67.67"/></svg>